<svg width="21" height="22" viewBox="0 0 21 22" fill="none" xmlns="http://www.w3.org/2000/svg">
    <path d="M19.0009 11C19.0009 15.9706 14.9715 20 10.0009 20C6.96008 20 4.27145 18.4919 2.64218 16.1829L0.953125 17.2577C2.93876 20.1233 6.25068 22 10.0009 22C16.0761 22 21.0009 17.0751 21.0009 11C21.0009 4.92487 16.0761 0 10.0009 0C6.96339 0 4.21339 1.23121 2.22279 3.22181L1.00098 2V6H5.00098L3.637 4.63602C5.26568 3.00735 7.51567 2 10.0009 2C14.9715 2 19.0009 6.02944 19.0009 11Z" fill="#00811F"/>
    <path d="M9.00098 5H11.001V11.8573L15.1973 14.28L14.1973 16.0121L9.00098 13V5Z" fill="#00811F"/>
</svg>
