<svg width="20" height="22" viewBox="0 0 20 22" fill="none" xmlns="http://www.w3.org/2000/svg">
    <path d="M4 4H7V6H4V4Z" fill="#00811F"/>
    <path d="M7 8H4V10H7V8Z" fill="#00811F"/>
    <path d="M4 12H7V14H4V12Z" fill="#00811F"/>
    <path d="M7 16H4V18H7V16Z" fill="#00811F"/>
    <path d="M8 4H16V6H8V4Z" fill="#00811F"/>
    <path d="M16 8H8V10H16V8Z" fill="#00811F"/>
    <path d="M8 12H16V14H8V12Z" fill="#00811F"/>
    <path d="M16 16H8V18H16V16Z" fill="#00811F"/>
    <path fill-rule="evenodd" clip-rule="evenodd" d="M0 0V22H20V0H0ZM18 2H2V20H18V2Z" fill="#00811F"/>
</svg>
