<svg width="20" height="26" viewBox="0 0 20 26" fill="none" xmlns="http://www.w3.org/2000/svg">
    <path d="M17.6348 3.61315C16.7089 2.48375 15.5439 1.57388 14.2239 0.949138C12.9038 0.324391 11.4616 0.000335693 10.0012 0.000335693C8.54072 0.000335693 7.09849 0.324391 5.77843 0.949138C4.45838 1.57388 3.2934 2.48375 2.36748 3.61315C0.837555 5.46872 0.000854492 7.79875 0.000854492 10.2037C0.000854492 12.6087 0.837555 14.9387 2.36748 16.7943L10.0012 26.0005L17.636 16.7943C19.1651 14.9383 20.0012 12.6083 20.001 10.2035C20.0008 7.79872 19.1643 5.46886 17.6348 3.61315ZM10 13.9991C9.11004 13.9991 8.24004 13.7352 7.50005 13.2407C6.76006 12.7463 6.18331 12.0435 5.84273 11.2213C5.50215 10.399 5.41303 9.49428 5.58666 8.6214C5.76029 7.74852 6.18885 6.94673 6.81817 6.31741C7.44748 5.6881 8.24927 5.25954 9.12215 5.08591C9.99503 4.91228 10.8998 5.00139 11.722 5.34198C12.5443 5.68256 13.247 6.25931 13.7415 6.9993C14.2359 7.73929 14.4998 8.60929 14.4998 9.49927C14.4998 10.6928 14.0258 11.8375 13.1819 12.6815C12.3381 13.5256 11.1936 13.9999 10 14.0002V13.9991Z" fill="#00811F"/>
</svg>
